<svg width="32" height="32" viewBox="0 0 32 32" fill="none" xmlns="http://www.w3.org/2000/svg">
<path d="M22.6667 20V25.3333H25.3333V20H22.6667ZM21.3333 28L21.1966 27.9935C20.5244 27.925 20 27.3569 20 26.6667V18.6667C20 17.9764 20.5244 17.4083 21.1966 17.3398L21.3333 17.3333H26.6667C27.403 17.3333 28 17.9303 28 18.6667V26.6667C28 27.403 27.403 28 26.6667 28H21.3333Z" fill="#DD6B20"/>
<path d="M6.66667 6.66667L6.66667 12L9.33333 12V6.66667H6.66667ZM5.33333 14.6667L5.19661 14.6602C4.52444 14.5917 4 14.0236 4 13.3333L4 5.33333C4 4.6431 4.52444 4.07495 5.19661 4.00651L5.33333 4L10.6667 4C11.403 4 12 4.59695 12 5.33333L12 13.3333C12 14.0697 11.403 14.6667 10.6667 14.6667H5.33333Z" fill="#DD6B20"/>
<path d="M6.66667 20L6.66667 25.3333H14.6667V20H6.66667ZM5.33333 28L5.19661 27.9935C4.52444 27.925 4 27.3569 4 26.6667L4 18.6667C4 17.9764 4.52444 17.4083 5.19661 17.3398L5.33333 17.3333H16C16.7364 17.3333 17.3333 17.9303 17.3333 18.6667V26.6667C17.3333 27.403 16.7364 28 16 28H5.33333Z" fill="#DD6B20"/>
<path d="M18.6667 12.6667C18.6667 13.7712 17.7712 14.6667 16.6667 14.6667C15.5621 14.6667 14.6667 13.7712 14.6667 12.6667V6C14.6667 4.89543 15.5621 4 16.6667 4C17.7712 4 18.6667 4.89543 18.6667 6V8L24 8V6C24 4.89543 24.8954 4 26 4C27.1046 4 28 4.89543 28 6V12.6667C28 13.7712 27.1046 14.6667 26 14.6667C24.8954 14.6667 24 13.7712 24 12.6667V10.6667L18.6667 10.6667V12.6667Z" fill="#A855F7"/>
</svg>
