<svg width="32" height="32" viewBox="0 0 32 32" fill="none" xmlns="http://www.w3.org/2000/svg">
<path d="M8.1556 6.91961C10.3331 5.0328 13.1188 3.99599 16 4.00001C22.6276 4.00001 28 9.37241 28 16C28 18.5632 27.196 20.9392 25.828 22.888L22 16H25.6C25.6002 14.118 25.0471 12.2774 24.0096 10.7071C22.9721 9.13686 21.4959 7.9062 19.7646 7.16816C18.0333 6.43012 16.1233 6.21725 14.2719 6.55603C12.4206 6.89481 10.7097 7.77029 9.352 9.07361L8.1556 6.91961ZM23.8444 25.0804C21.6669 26.9672 18.8812 28.004 16 28C9.3724 28 4 22.6276 4 16C4 13.4368 4.804 11.0608 6.172 9.11201L10 16H6.4C6.39985 17.882 6.9529 19.7226 7.9904 21.2929C9.02791 22.8631 10.5041 24.0938 12.2354 24.8318C13.9667 25.5699 15.8767 25.7827 17.7281 25.444C19.5794 25.1052 21.2903 24.2297 22.648 22.9264L23.8444 25.0804Z" fill="#A855F7"/>
</svg>
