<svg width="32" height="32" viewBox="0 0 32 32" fill="none" xmlns="http://www.w3.org/2000/svg">
<path d="M26 16C26 10.4772 21.5228 6 16 6C10.4772 6 6 10.4772 6 16C6 21.5228 10.4772 26 16 26V28C9.37258 28 4 22.6274 4 16C4 9.37258 9.37258 4 16 4C22.6274 4 28 9.37258 28 16C28 22.6274 22.6274 28 16 28V26C21.5228 26 26 21.5228 26 16Z" fill="#D4D4D8"/>
<path d="M16 11L20 17.1429H17.0392V19.2857C17.0392 19.6802 16.574 20 16 20C15.426 20 14.9608 19.6802 14.9608 19.2857V17.1429L12 17.1429L16 11Z" fill="#D4D4D8"/>
</svg>
